<svg width="60" height="60" viewBox="0 0 60 60" fill="none" xmlns="http://www.w3.org/2000/svg">
<path d="M50 15C50 15 44.2687 10.515 37.5 10L36.89 11.22C43.01 12.7175 45.8175 14.8637 48.75 17.5C43.6937 14.9187 38.7012 12.5 30 12.5C21.2987 12.5 16.3062 14.9187 11.25 17.5C14.1825 14.8637 17.5225 12.4812 23.11 11.22L22.5 10C15.3987 10.6712 10 15 10 15C10 15 3.59875 24.2812 2.5 42.5C8.9525 49.9412 18.75 50 18.75 50L20.7987 47.2687C17.3212 46.06 13.3937 43.9012 10 40C14.0475 43.0625 20.1562 46.25 30 46.25C39.8437 46.25 45.9525 43.0625 50 40C46.6062 43.9012 42.6787 46.06 39.2012 47.2687L41.25 50C41.25 50 51.0475 49.9412 57.5 42.5C56.4012 24.2812 50 15 50 15ZM21.875 37.5C19.4587 37.5 17.5 35.2612 17.5 32.5C17.5 29.7387 19.4587 27.5 21.875 27.5C24.2912 27.5 26.25 29.7387 26.25 32.5C26.25 35.2612 24.2912 37.5 21.875 37.5ZM38.125 37.5C35.7087 37.5 33.75 35.2612 33.75 32.5C33.75 29.7387 35.7087 27.5 38.125 27.5C40.5412 27.5 42.5 29.7387 42.5 32.5C42.5 35.2612 40.5412 37.5 38.125 37.5Z" fill="#CDCDCD"/>
</svg>
