<svg width="200" height="200" viewBox="0 0 200 200" fill="none" xmlns="http://www.w3.org/2000/svg">
<g clip-path="url(#clip0)">
<path d="M185.576 0H14.4241C6.45752 0 0 6.45752 0 14.4241V185.576C0 193.542 6.45752 200 14.4241 200H106.836V122.656H80.8594V92.3828H106.836V70.1035C106.836 44.2673 122.609 30.2048 145.656 30.2048C156.694 30.2048 166.18 31.0272 168.945 31.395V58.3984H153.053C140.514 58.3984 138.086 64.357 138.086 73.1018V92.3828H168.066L164.16 122.656H138.086V200H185.576C193.542 200 200 193.542 200 185.576V14.4241C200 6.45752 193.542 0 185.576 0V0Z" fill="#CCCCCC"/>
</g>
<defs>
<clipPath id="clip0">
<rect width="200" height="200" fill="white"/>
</clipPath>
</defs>
</svg>
