<svg width="200" height="200" viewBox="0 0 200 200" fill="none" xmlns="http://www.w3.org/2000/svg">
<g clip-path="url(#clip0)">
<path d="M199.804 58.8005C199.336 48.1738 197.617 40.868 195.156 34.5374C192.616 27.8176 188.709 21.8014 183.59 16.8002C178.589 11.721 172.533 7.77435 165.891 5.27447C159.524 2.81274 152.256 1.09427 141.63 0.625732C130.923 0.117516 127.525 0 100.371 0C73.2171 0 69.8183 0.117516 59.1519 0.586052C48.5251 1.05459 41.2193 2.77459 34.8902 5.23479C28.169 7.77435 22.1528 11.6814 17.1515 16.8002C12.0724 21.8014 8.1272 27.8573 5.62579 34.4992C3.16407 40.868 1.44559 48.1341 0.977058 58.7609C0.468841 69.467 0.351326 72.8658 0.351326 100.02C0.351326 127.173 0.468841 130.572 0.937378 141.239C1.40591 151.865 3.12592 159.171 5.58764 165.502C8.1272 172.221 12.0724 178.238 17.1515 183.239C22.1528 188.318 28.2086 192.265 34.8506 194.765C41.2193 197.226 48.4854 198.945 59.1137 199.413C69.7786 199.883 73.179 199.999 100.333 199.999C127.486 199.999 130.885 199.883 141.552 199.413C152.178 198.945 159.484 197.226 165.813 194.765C179.254 189.568 189.881 178.941 195.078 165.502C197.538 159.133 199.258 151.865 199.726 141.239C200.195 130.572 200.313 127.173 200.313 100.02C200.313 72.8658 200.273 69.467 199.804 58.8005ZM181.794 140.457C181.364 150.225 179.723 155.499 178.355 159.015C174.995 167.728 168.08 174.643 159.367 178.004C155.85 179.372 150.538 181.012 140.808 181.441C130.259 181.911 127.096 182.027 100.411 182.027C73.7253 182.027 70.5219 181.911 60.0111 181.441C50.2436 181.012 44.9691 179.372 41.4528 178.004C37.1169 176.402 33.1702 173.862 29.9668 170.541C26.6458 167.298 24.1063 163.391 22.5038 159.055C21.1363 155.539 19.4957 150.225 19.0668 140.497C18.5968 129.948 18.4808 126.783 18.4808 100.097C18.4808 73.4122 18.5968 70.2087 19.0668 59.6995C19.4957 49.9319 21.1363 44.6575 22.5038 41.1412C24.1063 36.8038 26.6458 32.8586 30.0065 29.6536C33.2481 26.3327 37.1551 23.7931 41.4925 22.1921C45.0088 20.8247 50.3229 19.184 60.0508 18.7537C70.5997 18.2851 73.765 18.1676 100.449 18.1676C127.174 18.1676 130.337 18.2851 140.848 18.7537C150.616 19.184 155.89 20.8247 159.406 22.1921C163.742 23.7931 167.689 26.3327 170.892 29.6536C174.213 32.8967 176.753 36.8038 178.355 41.1412C179.723 44.6575 181.364 49.9701 181.794 59.6995C182.262 70.2484 182.38 73.4122 182.38 100.097C182.38 126.783 182.262 129.908 181.794 140.457Z" fill="#CCCCCC"/>
<path d="M100.371 48.6423C72.0068 48.6423 48.9936 71.654 48.9936 100.02C48.9936 128.385 72.0068 151.397 100.371 151.397C128.736 151.397 151.748 128.385 151.748 100.02C151.748 71.654 128.736 48.6423 100.371 48.6423ZM100.371 133.347C81.9697 133.347 67.0437 118.422 67.0437 100.02C67.0437 81.6169 81.9697 66.6924 100.371 66.6924C118.773 66.6924 133.698 81.6169 133.698 100.02C133.698 118.422 118.773 133.347 100.371 133.347Z" fill="#CCCCCC"/>
<path d="M165.775 46.6109C165.775 53.2345 160.405 58.6052 153.779 58.6052C147.156 58.6052 141.785 53.2345 141.785 46.6109C141.785 39.9858 147.156 34.6167 153.779 34.6167C160.405 34.6167 165.775 39.9858 165.775 46.6109V46.6109Z" fill="#CCCCCC"/>
</g>
<defs>
<clipPath id="clip0">
<rect width="200" height="200" fill="white"/>
</clipPath>
</defs>
</svg>
