<svg width="50" height="50" viewBox="0 0 50 50" fill="none" xmlns="http://www.w3.org/2000/svg">
<path d="M25 2C12.318 2 2 12.317 2 25C2 37.683 12.318 48 25 48C37.682 48 48 37.683 48 25C48 12.317 37.682 2 25 2ZM27.542 32.719C24.245 32.719 23.026 30.581 23.026 30.581C23.026 30.581 22.438 32.89 22.005 34.531C21.572 36.172 21.498 36.196 21.078 37.122C20.607 38.161 19.452 39.796 19.112 40.299C18.841 40.7 18.505 41.034 18.308 40.995C18.111 40.957 18.111 40.75 18.063 40.317C17.997 39.722 17.805 37.723 17.897 36.371C17.957 35.491 18.264 34 18.264 34L20.489 24.892C19.121 22.085 20.243 17.7 23.36 17.7C25.571 17.7 26.15 19.701 25.473 22.106C25.172 23.179 24.227 26.188 24.198 26.33C24.169 26.472 24.099 26.772 24.115 27.068C24.115 27.946 24.786 29.74 27.11 29.74C30.854 29.74 32.627 24.205 32.627 20.503C32.627 17.526 30.735 13.93 25.211 13.93C19.583 13.93 16.479 18.213 16.479 22.144C16.479 24.349 17.349 25.235 17.752 25.721C18.08 26.116 17.914 26.495 17.914 26.495L17.559 27.92C17.428 28.391 17.007 28.633 16.416 28.288C15.824 27.948 13 26.752 13 21.649C13 16.42 17.926 11 25.571 11C31.64 11 37 14.817 37 21.001C37 28.635 32.232 32.719 27.542 32.719Z" fill="#CDCDCD"/>
</svg>
