<svg width="200" height="200" viewBox="0 0 200 200" fill="none" xmlns="http://www.w3.org/2000/svg">
<g clip-path="url(#clip0)">
<path d="M185.576 0H14.4241C6.45752 0 0 6.45752 0 14.4241V185.576C0 193.542 6.45752 200 14.4241 200H185.576C193.542 200 200 193.542 200 185.576V14.4241C200 6.45752 193.542 0 185.576 0V0ZM145.659 77.9694C145.703 78.9536 145.724 79.9423 145.724 80.9357C145.724 111.266 122.638 146.24 80.4184 146.242H80.4199H80.4184C67.4561 146.242 55.394 142.442 45.2362 135.931C47.0322 136.143 48.8602 136.249 50.7111 136.249C61.4655 136.249 71.3623 132.581 79.2191 126.424C69.1711 126.237 60.6995 119.601 57.7759 110.481C59.1751 110.75 60.614 110.896 62.0895 110.896C64.1846 110.896 66.214 110.614 68.1427 110.088C57.6401 107.985 49.7284 98.703 49.7284 87.5885C49.7284 87.4847 49.7284 87.3917 49.7314 87.2955C52.8244 89.0152 56.3614 90.0497 60.1273 90.1657C53.9642 86.0535 49.913 79.0237 49.913 71.0602C49.913 66.8549 51.0498 62.915 53.0212 59.523C64.3402 73.4116 81.2561 82.5455 100.333 83.5052C99.939 81.8237 99.736 80.072 99.736 78.2715C99.736 65.6006 110.016 55.3207 122.691 55.3207C129.294 55.3207 135.257 58.1116 139.445 62.5732C144.675 61.5417 149.585 59.6313 154.021 57.0023C152.304 62.3596 148.666 66.8549 143.927 69.6976C148.57 69.1422 152.995 67.9108 157.108 66.0828C154.036 70.6863 150.14 74.7299 145.659 77.9694V77.9694Z" fill="#CCCCCC"/>
</g>
<defs>
<clipPath id="clip0">
<rect width="200" height="200" fill="white"/>
</clipPath>
</defs>
</svg>
